# xmcd
#
# Track frame offsets:
#	150
#	8039
#	30136
#	55405
#	68613
#	85987
#	99331
#	111278
#	126395
#	140268
#	151401
#	162949
#	172672
#	186702
#	202208
#
# Disc length: 2908 seconds
#
# Revision: 0
# Processed by: cddbd v1.5.2PL0 Copyright (c) Steve Scherf et al.
# Submitted via: dBpowerAMP V4.0
#
DISCID=c50b5a0f
DTITLE=Various Artist - Kovbojske Pisnicky
DYEAR=1900
DGENRE=Comedy
TTITLE0=Stara stezka (Oklahoma)
TTITLE1=Opoustim svuj rodny kraj
TTITLE2=Je na zapad cesta dlouha
TTITLE3=Coloredo
TTITLE4=Jizni eskadrona
TTITLE5=Do Australie
TTITLE6=Sesla sa stara parta
TTITLE7=Cabaleri, zapad hori
TTITLE8=Tom Dooley
TTITLE9=Hi Jolly
TTITLE10=Vandr
TTITLE11=Honaci
TTITLE12=Ranni ticho
TTITLE13=Chvile, kdy jsem byl s nim
TTITLE14=Hrozna cesta
EXTD=
EXTT0=
EXTT1=
EXTT2=
EXTT3=
EXTT4=
EXTT5=
EXTT6=
EXTT7=
EXTT8=
EXTT9=
EXTT10=
EXTT11=
EXTT12=
EXTT13=
EXTT14=
PLAYORDER=
